
Genre:Action | Drama
Language:Mandarin
 
http://www.imdb.com/title/tt1533749/

Source:Bluray.720p.x264.-HDC
Subtitles:English/Chinese.HS.sub


Format : MPEG-4
Format profile : Base Media
Codec ID : isom
File size : 1.75 GiB
Duration : 2h 10mn
Overall bit rate : 1 918 Kbps


Video
Format profile : High@L4.1
Format settings, CABAC : Yes
Format settings, ReFrames : 3 frames
Codec ID : avc1
Codec ID/Info : Advanced Video Coding
Duration : 2h 10mn
Bit rate mode : Variable
Bit rate : 1 489 Kbps
Maximum bit rate : 13.6 Mbps
Width : 1 280 pixels
Height : 544 pixels
Display aspect ratio : 2.35:1
Frame rate mode : Constant
Frame rate : 23.976 fps
Color space : YUV
Chroma subsampling : 4:2:0
Bit depth : 8 bits
Scan type : Progressive
Bits/(Pixel*Frame) : 0.089
Stream size : 1.37 GiB (78%)
Writing library : x264


Audio
ID : 2
Format : AAC
Format/Info : Advanced Audio Codec
Format version : Version 4
Format profile : LC
Format settings, SBR : No
Codec ID : 40
Duration : 2h 10mn
Bit rate mode : Variable
Bit rate : 419 Kbps
Maximum bit rate : 528 Kbps
Channel(s) : 2 channels
Channel positions : Front: L R
Sampling rate : 48.0 KHz
Stream size : 391 MiB (22%)


Plot:
China is plunged into strife as feuding warlords try to expand their power by warring over neighboring lands
 
http://www.postimg.com/29000/28609.jpg
 
http://www.postimg.com/29000/28606.jpg
 
http://www.postimg.com/29000/28610.jpg
 
http://www.postimg.com/29000/28608.jpg
 
http://www.postimg.com/29000/28607.jpg
 
http://www.postimg.com/29000/28605.jpg